<svg width="65" height="22" fill="none" xmlns="http://www.w3.org/2000/svg"><path d="M26.89.892l-4.335 20.273h5.241L32.131.892h-5.242zM19.126.893l-5.455 13.79-2.2-11.723A2.44 2.44 0 009.042.893H.12L0 1.479c1.79.351 3.528.925 5.175 1.708a2.214 2.214 0 011.24 1.787l4.188 16.191h5.535L24.634.893h-5.508zM60.656.892h-4.481a2.388 2.388 0 00-2.228 1.494l-7.869 18.779h5.508l1.094-3.028h6.669l.667 3.028h4.854L60.656.892zm-6.469 13.084l2.761-7.616 1.587 7.616h-4.348zM39.014 6.508c0-.72.707-1.494 2.227-1.694a9.87 9.87 0 015.175.907l.907-4.295A14.058 14.058 0 0042.415.52c-5.188 0-8.83 2.76-8.856 6.668 0 2.921 2.668 4.548 4.588 5.522 1.92.973 2.668 1.627 2.668 2.52 0 1.334-1.628 1.961-3.135 1.988a10.949 10.949 0 01-5.335-1.334l-.947 4.441a15.832 15.832 0 005.829 1.08c5.508 0 9.11-2.667 9.123-6.935.026-5.281-7.39-5.575-7.336-7.962z" fill="#1A1F71"/></svg>