<svg width="41" height="29" fill="none" xmlns="http://www.w3.org/2000/svg"><path d="M39.904 4.767a5.073 5.073 0 00-1.32-2.273 5.106 5.106 0 00-2.283-1.314C33.12.33 20.38.33 20.38.33s-12.74 0-15.922.85a5.107 5.107 0 00-2.283 1.314 5.074 5.074 0 00-1.32 2.273 52.585 52.585 0 00-.854 9.765c-.02 3.275.266 6.544.855 9.766.232.86.687 1.644 1.319 2.273a5.107 5.107 0 002.283 1.314c3.182.85 15.922.85 15.922.85s12.74 0 15.921-.85a5.107 5.107 0 002.284-1.314 5.073 5.073 0 001.319-2.273c.588-3.222.874-6.49.854-9.765a52.577 52.577 0 00-.854-9.766zm-23.6 15.853V8.445l10.584 6.088-10.584 6.087z" fill="red"/></svg>