<svg width="71" height="20" fill="none" xmlns="http://www.w3.org/2000/svg"><path fill-rule="evenodd" clip-rule="evenodd" d="M19.645.04v.008c-.009 0-2.746-.009-3.476 2.606a2876.29 2876.29 0 01-2.606 9.2h-.522s-1.928-6.767-2.606-9.209C9.705.03 6.959.04 6.959.04H.703v19.895H6.96V8.119h.522l3.649 11.815h4.344l3.65-11.807h.521v11.807h6.256V.039h-6.256zM42.496.039s-1.833.165-2.694 2.085l-4.43 9.73h-.522V.039h-6.256v19.894h5.908s1.92-.174 2.78-2.085l4.345-9.73h.521v11.815h6.257V.04h-5.909zM51.188 9.074v10.86h6.256V13.59h6.777a6.769 6.769 0 006.386-4.517h-19.42z" fill="#0F754E"/><path fill-rule="evenodd" clip-rule="evenodd" d="M64.224.039H50.312a9.994 9.994 0 009.828 8.166h10.722c.096-.452.139-.912.139-1.39A6.774 6.774 0 0064.223.039z" fill="url(#paint0_linear_1_7482)"/><defs><linearGradient id="paint0_linear_1_7482" x1="50.5" y1="5" x2="71" y2="5" gradientUnits="userSpaceOnUse"><stop stop-color="#03ACFE"/><stop offset="1" stop-color="#1E5ED8"/></linearGradient></defs></svg>