<svg width="190" height="14" fill="none" xmlns="http://www.w3.org/2000/svg"><path d="M125 12.394h-1.645V8.553H125c.308-.016.612.079.853.265a.868.868 0 01.244.313.826.826 0 01.076.385.822.822 0 01-.207.548.819.819 0 01-.508.29c.25.02.484.127.658.3a.874.874 0 01.251.639.935.935 0 01-.084.44.981.981 0 01-.279.36 1.577 1.577 0 01-1.004.301zm-1.023-3.36v1.175h.734c.221.014.441-.041.627-.157a.515.515 0 00.22-.44.498.498 0 00-.182-.41.834.834 0 00-.521-.143l-.878-.024zm0 2.873h.897c.222.012.442-.045.628-.163a.559.559 0 00.219-.476.539.539 0 00-.226-.47 1.167 1.167 0 00-.665-.156h-.834l-.019 1.265zM128.969 12.396h-.627v-1.584l-1.412-2.27h.696l1.023 1.698 1.023-1.698h.69l-1.393 2.27v1.584zM132.82 8.555h1.437c.257-.015.515.023.756.11s.46.222.644.396c.354.39.535.898.502 1.415a1.941 1.941 0 01-.502 1.42 1.847 1.847 0 01-.643.4 1.895 1.895 0 01-.757.112h-1.437V8.555zm.628.512v2.811h.753a1.3 1.3 0 00.979-.36c.244-.296.365-.667.339-1.043a1.472 1.472 0 00-.339-1.041 1.3 1.3 0 00-.979-.361l-.753-.006zM139.631 11.878v.518h-2.541V8.555h2.541v.511h-1.92v1.144h1.82v.494h-1.82v1.204l1.92-.03zM141.217 12.396h-.627V8.555h.565l2.095 2.86v-2.86h.628v3.847h-.559l-2.077-2.836-.025 2.83zM145.581 12.396h-.628V8.555h.628v3.841zM146.484 11.323h.628a.59.59 0 00.295.458c.196.121.426.182.659.174.222.01.442-.05.627-.168a.518.518 0 00.18-.184.488.488 0 00.022-.447.465.465 0 00-.133-.164 1.416 1.416 0 00-.565-.235l-.52-.12a1.724 1.724 0 01-.816-.38.883.883 0 01-.264-.656.955.955 0 01.103-.45c.071-.14.176-.263.305-.357a1.68 1.68 0 011.054-.313c.373-.015.739.096 1.036.313.122.1.219.225.284.366a.99.99 0 01.092.447h-.627a.599.599 0 00-.257-.452 1.148 1.148 0 00-1.18 0 .484.484 0 00-.226.415.408.408 0 00.169.331c.169.11.359.186.559.224l.439.102c.327.054.635.19.891.391a.863.863 0 01.276.674.993.993 0 01-.099.476c-.072.15-.18.28-.315.38a1.83 1.83 0 01-1.129.313 1.78 1.78 0 01-1.086-.307 1.045 1.045 0 01-.402-.83zM153.753 12.395h-1.644V8.553h1.644c.309-.015.613.08.854.265a.868.868 0 01.244.314.826.826 0 01.076.385.827.827 0 01-.207.548.816.816 0 01-.502.289c.25.02.484.127.659.3a.877.877 0 01.251.639.947.947 0 01-.084.441.985.985 0 01-.28.36c-.289.212-.647.319-1.011.3zm-1.022-3.36v1.174h.734c.221.014.441-.04.627-.156a.515.515 0 00.214-.44.498.498 0 00-.182-.41.834.834 0 00-.521-.144l-.872-.024zm0 2.872h.897a1.06 1.06 0 00.627-.162.561.561 0 00.22-.476.537.537 0 00-.226-.47 1.16 1.16 0 00-.665-.156h-.853v1.264zM158.549 11.878v.518h-2.541V8.555h2.541v.511h-1.926v1.144h1.82v.494h-1.82v1.204l1.926-.03zM162.022 11.878v.518h-2.51V8.555h.627v3.33l1.883-.007zM164.04 12.396h-.627v-1.583l-1.393-2.258h.696l1.023 1.698 1.023-1.698h.69l-1.412 2.258v1.583zM168.327 12.395l-.364-1.042h-1.55l-.364 1.042h-.627l1.449-3.848h.672l1.449 3.848h-.665zm-1.136-3.203l-.627 1.685h1.211l-.627-1.685h.043zM170.393 12.396h-.627V8.555h.627v1.806l1.676-1.806h.74l-1.588 1.704 1.72 2.143h-.772l-1.362-1.734-.414.452v1.276zM175.272 8.487c.255-.011.51.03.746.123s.448.234.622.413c.356.404.538.923.508 1.451a2.02 2.02 0 01-.508 1.451 2.013 2.013 0 01-1.371.533 2.015 2.015 0 01-1.371-.533 2.024 2.024 0 01-.508-1.451 2.03 2.03 0 01.508-1.451c.175-.18.388-.322.625-.414.238-.093.493-.134.749-.122zm0 .524a1.152 1.152 0 00-.504.095 1.11 1.11 0 00-.406.302 1.598 1.598 0 00-.332 1.066c-.022.382.095.759.332 1.066.113.124.253.223.409.291a1.25 1.25 0 00.996 0c.156-.068.296-.167.409-.291.237-.307.355-.684.332-1.066a1.587 1.587 0 00-.332-1.066 1.098 1.098 0 00-.402-.305 1.145 1.145 0 00-.502-.098v.006zM179.749 12.395h-.678l-1.43-3.848h.69l1.092 3.173 1.092-3.173h.665l-1.431 3.848z" fill="#C4C4C4"/><path d="M74.969 1.535V12.98" stroke="#C4C4C4" stroke-width="1.145" stroke-miterlimit="10"/><path d="M84.742 2.002h1.437c.253-.013.506.024.743.11.236.086.452.219.631.39.352.387.53.89.496 1.403a1.942 1.942 0 01-.49 1.415c-.18.172-.396.306-.634.392a1.87 1.87 0 01-.746.108h-1.43l-.007-3.818zm.628.542v2.728h.721c.179.01.358-.018.524-.08a1.26 1.26 0 00.443-.282c.245-.282.368-.644.345-1.011a1.39 1.39 0 00-.345-1 1.26 1.26 0 00-.443-.28 1.303 1.303 0 00-.524-.08l-.721.005zM89.776 5.813h-.628V2.002h.628v3.811zM94.444 4.303c.011.215-.024.43-.104.631-.08.201-.203.384-.36.537a1.734 1.734 0 01-.582.339 1.786 1.786 0 01-.673.095 1.764 1.764 0 01-.735-.126 1.7 1.7 0 01-.608-.416 2.075 2.075 0 01-.496-1.463 2.064 2.064 0 01.502-1.457c.166-.18.372-.321.602-.415a1.75 1.75 0 01.728-.127 1.84 1.84 0 011.136.343c.303.226.504.556.559.921h-.628a.983.983 0 00-.389-.53 1.21 1.21 0 00-.684-.18 1.099 1.099 0 00-.478.098c-.15.068-.28.168-.381.293a1.586 1.586 0 00-.327 1.048c-.02.378.095.753.327 1.06.105.127.24.228.393.296.154.068.322.1.491.095.291.012.576-.083.797-.265.1-.085.18-.19.232-.308a.847.847 0 00.076-.372v-.085h-1.023v-.487h1.631l-.006.475zM96.19 5.813h-.627V2.002h.627v3.811zM99.086 5.813h-.628V2.538h-1.255v-.536h3.138v.542h-1.255v3.27zM103.493 5.814l-.364-1.024h-1.513l-.363 1h-.628l1.437-3.811h.627l1.437 3.81-.633.025zm-1.142-3.119l-.571 1.596h1.198l-.571-1.602-.056.006zM107.596 5.271v.542h-2.479V2.002h.628v3.27h1.851zM112.118 5.905a1.697 1.697 0 01-.719-.124 1.635 1.635 0 01-.592-.412 2.103 2.103 0 01-.483-1.463 2.114 2.114 0 01.483-1.463c.162-.178.365-.32.592-.412.227-.093.473-.135.719-.124.407-.01.803.12 1.117.367.302.238.493.58.534.952h-.628a.968.968 0 00-.37-.56 1.093 1.093 0 00-.671-.199 1.045 1.045 0 00-.474.095.994.994 0 00-.373.296 1.64 1.64 0 00-.314 1.06c-.02.375.09.746.314 1.054.098.123.226.221.372.287.146.066.307.098.468.092.24.005.475-.062.672-.193a.862.862 0 00.37-.511h.628a1.368 1.368 0 01-.534.91c-.317.235-.709.358-1.111.348zM116.548 1.906c.254-.012.506.03.741.122.234.093.444.234.615.414.348.41.525.929.496 1.457a2.076 2.076 0 01-.496 1.493c-.179.171-.39.307-.623.4a1.995 1.995 0 01-1.471 0 1.924 1.924 0 01-.623-.4 2.069 2.069 0 01-.496-1.463 2.056 2.056 0 01.502-1.457c.168-.185.377-.332.611-.43.235-.097.489-.144.744-.136zm0 .554a1.13 1.13 0 00-.495.1c-.155.07-.29.174-.396.303a1.576 1.576 0 00-.332 1.054c-.021.377.094.749.326 1.054.206.227.497.366.81.387.313.022.622-.076.859-.273l.119-.114c.232-.305.348-.677.327-1.054.03-.376-.076-.75-.301-1.06a1.079 1.079 0 00-.408-.306c-.159-.07-.334-.1-.509-.091zM120.091 5.813h-.571V2.002h.721l1.255 2.896h.044l1.255-2.896h.722v3.811h-.565V3.062h-.038l-1.167 2.643h-.47l-1.168-2.643h-.037l.019 2.751zM125.391 5.813h-.571V2.002h.722l1.255 2.896h.081l1.255-2.896h.722v3.811h-.571V3.062h-.038l-1.167 2.643h-.47l-1.167-2.643h-.038l-.013 2.751zM130.752 2.002v2.445a.845.845 0 00.263.656 1.188 1.188 0 001.463 0 .845.845 0 00.263-.656V2.002h.628V4.5a1.315 1.315 0 01-.44 1.018 1.932 1.932 0 01-1.173.393c-.426 0-.84-.139-1.173-.394a1.327 1.327 0 01-.332-.463 1.272 1.272 0 01-.101-.554V2h.602zM135.237 5.813h-.628V2.002h.559l2.039 2.71h.044v-2.71h.628v3.811h-.559l-2.045-2.703h-.044l.006 2.703zM139.776 5.813h-.628V2.002h.628v3.811zM142.679 5.905a1.702 1.702 0 01-.723-.122 1.636 1.636 0 01-.594-.414 2.103 2.103 0 01-.483-1.463 2.114 2.114 0 01.483-1.463c.162-.178.364-.32.591-.412.228-.093.474-.135.72-.124.406-.01.803.12 1.117.367.301.238.493.58.533.952h-.627a.968.968 0 00-.37-.56 1.088 1.088 0 00-.672-.199 1.05 1.05 0 00-.474.095 1.01 1.01 0 00-.373.296c-.225.31-.335.683-.314 1.06-.02.375.091.746.314 1.054.099.127.228.228.377.297.148.068.312.1.477.094a1.17 1.17 0 00.671-.192.863.863 0 00.364-.512h.627c-.022.178-.08.35-.172.505a1.368 1.368 0 01-.361.404 1.79 1.79 0 01-1.111.337zM147.879 5.814l-.364-1.024h-1.512l-.364 1h-.627l1.437-3.811h.665l1.437 3.81-.672.025zm-1.142-3.119l-.577 1.602h1.199l-.578-1.602h-.044zM150.679 5.813h-.627V2.538h-1.255v-.536h3.137v.542h-1.255v3.27zM153.581 5.813h-.628V2.002h.628v3.811zM156.556 1.906c.253-.012.506.03.74.122.235.093.445.234.616.414.348.41.525.929.495 1.457a2.073 2.073 0 01-.495 1.463 1.94 1.94 0 01-.624.4 1.99 1.99 0 01-1.47 0 1.924 1.924 0 01-.623-.4 2.069 2.069 0 01-.496-1.463 2.056 2.056 0 01.502-1.457c.171-.18.381-.32.615-.413a1.79 1.79 0 01.74-.123zm0 .554a1.126 1.126 0 00-.495.1c-.155.07-.291.174-.396.303a1.571 1.571 0 00-.332 1.054c-.021.377.094.749.326 1.054.206.227.497.366.81.387.313.022.622-.076.859-.273l.119-.114c.232-.305.347-.677.327-1.054a1.596 1.596 0 00-.327-1.066 1.078 1.078 0 00-.397-.297 1.123 1.123 0 00-.494-.094zM160.139 5.813h-.627V2.002h.558l2.04 2.71h.043v-2.71h.628v3.811h-.558l-2.084-2.71v2.71zM168.438 5.814l-.364-1.024h-1.512l-.364 1h-.628l1.437-3.811h.659l1.437 3.81-.665.025zm-1.142-3.119l-.577 1.602h1.198l-.577-1.602h-.044zM173.272 4.303c.011.215-.024.43-.104.631-.08.201-.203.384-.36.537a1.744 1.744 0 01-.582.339 1.786 1.786 0 01-.673.095 1.763 1.763 0 01-.735-.126 1.703 1.703 0 01-.608-.416 2.079 2.079 0 01-.496-1.463 2.073 2.073 0 01.496-1.457c.166-.18.372-.321.602-.415a1.75 1.75 0 01.728-.127 1.84 1.84 0 011.136.343c.303.226.503.556.559.921h-.628a.983.983 0 00-.389-.53 1.21 1.21 0 00-.684-.18 1.1 1.1 0 00-.485.095c-.152.068-.284.17-.387.296a1.58 1.58 0 00-.326 1.048c-.023.38.092.757.326 1.066a1.114 1.114 0 00.885.391 1.17 1.17 0 00.796-.265.867.867 0 00.321-.68V4.32h-1.023v-.493h1.631v.475zM176.924 5.271v.536h-2.51V2.002h2.51v.542h-1.882v1.078h1.8v.511h-1.8v1.144l1.882-.006zM178.694 5.813h-.628V2.002h.559l2.039 2.71h.044v-2.71h.628v3.811h-.559l-2.039-2.703h-.044v2.703zM184.244 5.905a1.699 1.699 0 01-.72-.124 1.635 1.635 0 01-.592-.412 2.103 2.103 0 01-.483-1.463 2.114 2.114 0 01.483-1.463c.162-.178.365-.32.592-.412.227-.093.473-.135.72-.124.406-.01.802.12 1.116.367.302.238.494.58.534.952h-.628a.968.968 0 00-.37-.56 1.083 1.083 0 00-.671-.199 1.044 1.044 0 00-.474.096.994.994 0 00-.373.296 1.64 1.64 0 00-.314 1.06c-.02.374.09.745.314 1.053a1 1 0 00.376.297c.149.068.312.1.477.094a1.17 1.17 0 00.671-.192.859.859 0 00.364-.512h.628c-.022.178-.081.35-.172.505a1.386 1.386 0 01-.362.404c-.32.233-.715.352-1.116.337zM188.604 5.813h-.627V4.272l-1.387-2.276h.684l.998 1.65h.043l.998-1.65h.684l-1.399 2.276.006 1.541zM84.547 11.281h.627a.588.588 0 00.097.249.616.616 0 00.198.184c.19.11.407.166.628.163.222.011.442-.046.627-.163a.503.503 0 00.18-.18.478.478 0 00.065-.24.419.419 0 00-.182-.356 1.524 1.524 0 00-.59-.229l-.514-.12a1.588 1.588 0 01-.785-.38.917.917 0 01-.25-.674.964.964 0 01.095-.455c.069-.142.171-.267.3-.364.3-.219.67-.33 1.047-.313a1.6 1.6 0 011.004.307c.127.094.23.213.303.35.072.136.113.286.118.439h-.627a.587.587 0 00-.27-.416.99.99 0 00-.571-.15 1.01 1.01 0 00-.59.156.495.495 0 00-.169.18.472.472 0 00-.014.421c.03.058.073.108.126.146.17.108.36.182.559.217l.439.102c.323.055.626.19.879.391a.91.91 0 01.225.316c.05.12.074.248.07.377.006.166-.03.331-.102.482-.073.15-.183.282-.319.385-.323.227-.717.34-1.117.319a1.765 1.765 0 01-1.073-.307c-.13-.1-.235-.228-.307-.373a1.03 1.03 0 01-.107-.464zM89.307 12.31h-.627V8.498h.627v3.812zM91.188 12.31h-.59V8.498h.558l2.04 2.71h.043v-2.71h.628v3.812h-.559l-2.083-2.704h-.044l.007 2.704zM96.76 12.402a1.706 1.706 0 01-.72-.124 1.643 1.643 0 01-.592-.412 2.103 2.103 0 01-.483-1.463 2.115 2.115 0 01.483-1.463c.162-.178.364-.32.592-.412.227-.093.473-.135.72-.124.405-.01.802.12 1.116.367.301.238.493.58.533.952h-.627a.972.972 0 00-.37-.56 1.091 1.091 0 00-.672-.199 1.047 1.047 0 00-.474.095c-.147.069-.275.17-.373.296-.225.31-.335.683-.314 1.06-.02.375.09.746.314 1.054.099.127.228.228.377.296.148.069.312.101.477.095.239.006.474-.062.671-.192a.861.861 0 00.364-.512h.627c-.022.178-.08.35-.172.505a1.377 1.377 0 01-.36.404c-.321.233-.716.352-1.118.337zM101.994 11.768v.542h-2.51V8.498h2.51v.542h-1.882v1.078h1.801v.506h-1.801v1.144h1.882zM104.919 9.608a1.072 1.072 0 01.09-.47c.065-.149.162-.282.286-.392a1.39 1.39 0 01.96-.337c.343-.013.678.096.941.307a.965.965 0 01.371.783 1.123 1.123 0 01-.189.602 4.65 4.65 0 01-.684.783l-.884.855v.042h1.819v.53h-2.71v-.427l1.342-1.343c.195-.185.371-.387.528-.602a.748.748 0 00.131-.416.549.549 0 00-.207-.44.77.77 0 00-.514-.174.766.766 0 00-.534.187.648.648 0 00-.207.494h-.539v.018zM110.1 12.4a1.299 1.299 0 01-.613-.127 1.232 1.232 0 01-.472-.396 2.456 2.456 0 01-.39-1.476 2.43 2.43 0 01.39-1.469 1.32 1.32 0 01.474-.387 1.378 1.378 0 011.684.387c.285.442.421.957.389 1.476a2.447 2.447 0 01-.389 1.475c-.119.165-.28.3-.468.39-.187.09-.395.134-.605.127zm-.627-.903a.67.67 0 00.254.282.715.715 0 00.746 0 .673.673 0 00.255-.282c.16-.345.231-.724.207-1.102a2.226 2.226 0 00-.22-1.095.667.667 0 00-.255-.282.709.709 0 00-1 .282 2.194 2.194 0 00-.226 1.095c-.018.38.062.759.232 1.102h.007zM114.049 12.4a1.299 1.299 0 01-.613-.127 1.24 1.24 0 01-.472-.396 2.455 2.455 0 01-.389-1.476 2.422 2.422 0 01.389-1.469 1.32 1.32 0 01.474-.387 1.38 1.38 0 011.21 0c.188.092.35.224.474.387.285.442.421.957.389 1.476a2.44 2.44 0 01-.389 1.475c-.119.165-.28.3-.467.39-.188.09-.396.134-.606.127zm-.627-.903a.667.667 0 00.255.282.709.709 0 001-.282c.161-.346.232-.724.207-1.102a2.215 2.215 0 00-.22-1.095.67.67 0 00-.254-.282.715.715 0 00-.746 0 .673.673 0 00-.255.282 2.205 2.205 0 00-.226 1.095c-.018.38.062.759.233 1.102h.006zM117.47 10.595v-.488h.483a.778.778 0 00.521-.168.556.556 0 00.207-.44.516.516 0 00-.194-.427.802.802 0 00-.521-.163.81.81 0 00-.527.163.6.6 0 00-.226.445h-.59c.002-.155.039-.308.107-.45.068-.14.166-.266.288-.368a1.663 1.663 0 011.883 0 .902.902 0 01.278.318.855.855 0 01.098.404.887.887 0 01-.194.602.887.887 0 01-.521.307v.043c.24.02.464.125.627.295.154.166.239.38.239.602a.95.95 0 01-.188.602 1.251 1.251 0 01-.527.403 1.82 1.82 0 01-.741.15 1.605 1.605 0 01-1.016-.307 1.07 1.07 0 01-.421-.818h.59a.593.593 0 00.264.44c.173.114.38.17.589.162a.945.945 0 00.597-.18.608.608 0 00.227-.408.582.582 0 00-.14-.442l-.087-.084a.998.998 0 00-.628-.175l-.477-.018zM2.239 8.798c.361.622.785 1.113 1.271 1.475.487.35 1.012.526 1.578.526.361 0 .66-.08.898-.238.238-.158.356-.395.356-.712a.856.856 0 00-.203-.576c-.124-.159-.356-.317-.695-.475a17.04 17.04 0 00-1.408-.577c-.283-.113-.61-.26-.983-.44A5.67 5.67 0 012 7.05a3.926 3.926 0 01-.83-1.068c-.216-.43-.323-.939-.323-1.527 0-.746.198-1.379.593-1.899.396-.52.922-.916 1.578-1.187A5.752 5.752 0 015.206.963c.848 0 1.572.136 2.17.407.611.26 1.115.593 1.51 1 .396.396.701.797.916 1.204L7.326 4.949c-.543-.848-1.22-1.272-2.035-1.272-.712 0-1.068.243-1.068.73 0 .384.237.69.712.915.486.215 1.108.458 1.865.73.893.305 1.623.757 2.188 1.356.565.588.848 1.357.848 2.306 0 .634-.13 1.193-.39 1.68-.26.486-.61.893-1.052 1.22-.43.317-.921.554-1.475.713a5.652 5.652 0 01-1.696.254 6.018 6.018 0 01-2.272-.424 5.863 5.863 0 01-1.798-1.136A4.866 4.866 0 010 10.426l2.239-1.628zM11.675 1.268h3.29v4.206h4.68V1.268h3.29V13.14h-3.29V8.408h-4.68v4.731h-3.29V1.27zM24.692 7.204c0-.939.164-1.787.492-2.544a5.86 5.86 0 011.39-1.967 6.054 6.054 0 012.07-1.272 7.055 7.055 0 012.56-.458c.939 0 1.798.153 2.578.458a6.053 6.053 0 012.07 1.272 5.476 5.476 0 011.356 1.967c.328.757.492 1.605.492 2.544 0 .927-.159 1.78-.475 2.56a5.952 5.952 0 01-1.357 2.035 6.165 6.165 0 01-2.052 1.323c-.791.305-1.662.458-2.612.458-.95 0-1.82-.153-2.611-.458a6.357 6.357 0 01-2.069-1.323 6.295 6.295 0 01-1.357-2.035c-.316-.78-.475-1.633-.475-2.56zm3.494 0c0 .96.271 1.746.814 2.357.554.599 1.289.899 2.204.899.916 0 1.64-.3 2.171-.9.543-.61.814-1.395.814-2.356 0-.973-.26-1.758-.78-2.358-.52-.599-1.255-.898-2.204-.898-.916 0-1.651.3-2.205.898-.543.6-.814 1.385-.814 2.358zM45.451 8.967V6.491h6.139a7.846 7.846 0 01-.271 2.748 6.176 6.176 0 01-1.154 2.272 5.622 5.622 0 01-2 1.526c-.792.362-1.708.543-2.748.543-1.289 0-2.436-.266-3.443-.797a6.025 6.025 0 01-2.357-2.222c-.565-.96-.848-2.08-.848-3.357 0-.961.17-1.826.51-2.595a5.645 5.645 0 011.424-1.967 6.431 6.431 0 012.17-1.238 7.93 7.93 0 012.68-.441c.87 0 1.645.13 2.323.39a5.885 5.885 0 011.798 1.034c.52.43.972.922 1.356 1.476l-3.018 1.441a3.452 3.452 0 00-.933-1.085c-.384-.294-.893-.441-1.526-.441-.61 0-1.17.136-1.68.407-.497.26-.898.644-1.203 1.153-.294.509-.441 1.13-.441 1.866 0 1.096.305 1.967.916 2.611.621.633 1.424.95 2.408.95.78 0 1.39-.17 1.831-.509.452-.339.775-.769.967-1.289h-2.9zM52.78 7.204c0-.939.164-1.787.492-2.544a5.86 5.86 0 011.39-1.967 6.054 6.054 0 012.07-1.272 7.054 7.054 0 012.56-.458c.938 0 1.798.153 2.578.458a6.053 6.053 0 012.069 1.272 5.478 5.478 0 011.356 1.967c.328.757.492 1.605.492 2.544 0 .927-.158 1.78-.475 2.56a5.952 5.952 0 01-1.356 2.035 6.165 6.165 0 01-2.052 1.323c-.792.305-1.662.458-2.612.458-.95 0-1.82-.153-2.612-.458a6.357 6.357 0 01-2.069-1.323 6.295 6.295 0 01-1.356-2.035c-.317-.78-.475-1.633-.475-2.56zm3.493 0c0 .96.272 1.746.814 2.357.554.599 1.29.899 2.205.899.916 0 1.64-.3 2.17-.9.543-.61.815-1.395.815-2.356 0-.973-.26-1.758-.78-2.358-.52-.599-1.255-.898-2.205-.898-.916 0-1.65.3-2.205.898-.542.6-.814 1.385-.814 2.358z" fill="#C4C4C4"/></svg>