<svg width="95" height="37" fill="none" xmlns="http://www.w3.org/2000/svg"><path d="M29.157 31.891c0 1.084-.258 1.977-.775 2.686-.518.7-1.243 1.218-2.178 1.552-.925.333-2.01.492-3.236.492H16.82V20.08h5.814c1.085 0 2.052.15 2.886.458.835.309 1.494.768 1.977 1.385.484.609.726 1.393.726 2.336 0 .817-.217 1.518-.659 2.093-.442.576-1.043 1.018-1.793 1.335a5.45 5.45 0 012.435 1.476c.626.684.951 1.594.951 2.728zm-6.831-9.117h-2.102v3.92h2.102c.742 0 1.326-.175 1.751-.534.426-.35.643-.842.643-1.45 0-.61-.217-1.085-.643-1.427-.425-.342-1.009-.518-1.751-.51zm-2.102 11.152h2.452c.85 0 1.56-.2 2.127-.592.567-.392.85-1.018.85-1.868 0-.801-.283-1.393-.85-1.76s-1.276-.56-2.127-.56h-2.452v4.78zM41.9 36.621l-1.727-3.737H34.5l-1.702 3.737h-3.854l7.633-15.949a.84.84 0 011.126-.392.814.814 0 01.392.392l7.649 15.95H41.9zM37.337 25.47l-2.036 4.73h4.063l-2.027-4.73zM46.879 20.08h3.403v6.189h7.708v-6.19h3.403v16.542H57.99v-7.257h-7.708v7.257H46.88V20.08zM62.984 20.08h3.404v6.189h7.707v-6.19H77.5v16.542h-3.404v-7.257h-7.707v7.257h-3.404V20.08zM91.153 36.621l-1.726-3.737h-5.672l-1.702 3.737h-3.854l7.633-15.949a.84.84 0 011.126-.392.814.814 0 01.392.392l7.649 15.95h-3.846zM86.591 25.47l-2.036 4.73h4.063l-2.027-4.73z" fill="#fff"/><path d="M11.286 3.198H3.453v13.471H0V.128h14.74v16.541h-3.454V3.198zM37.17.127v9.994L47.765.143a.539.539 0 01.76.025c.091.1.141.234.141.376V16.66h-3.22V6.675l-10.618 9.977a.539.539 0 01-.76-.025.552.552 0 01-.141-.375V.127h3.245z" fill="#2C75FF"/><path d="M3.245 20.08v9.993l10.593-9.976a.539.539 0 01.76.025c.091.1.141.233.141.375v16.124h-3.22v-9.993L.902 36.605a.539.539 0 01-.76-.025.553.553 0 01-.141-.376V20.08h3.245z" fill="#fff"/><path d="M50.227 3.198V.128h12.312v3.07h-4.471v13.471h-3.404V3.198h-4.437zM63.833.128h3.495v6.715l5.88-6.715h4.038l-6.857 7.75 7.182 8.791h-4.112l-6.14-7.49v7.49h-3.495L63.833.128zM91.153 16.668l-1.726-3.737h-5.672l-1.702 3.737h-3.854L85.832.728a.84.84 0 011.126-.393.814.814 0 01.392.393l7.649 15.948-3.846-.008zM86.591 5.516l-2.036 4.73h4.063l-2.027-4.73zM24.924.72a.84.84 0 00-1.126-.392.813.813 0 00-.392.392l-7.633 15.949h3.854l4.538-10.494 4.563 10.494h3.853L24.924.719z" fill="#2C75FF"/></svg>