<svg width="33" height="33" fill="none" xmlns="http://www.w3.org/2000/svg"><path fill-rule="evenodd" clip-rule="evenodd" d="M2.265 2.265C0 4.53 0 8.175 0 15.465v1.289c0 7.29 0 10.935 2.265 13.2 2.265 2.265 5.91 2.265 13.2 2.265h1.289c7.29 0 10.935 0 13.2-2.265 2.265-2.265 2.265-5.91 2.265-13.2v-1.289c0-7.29 0-10.935-2.265-13.2C27.69 0 24.044 0 16.754 0h-1.289C8.175 0 4.53 0 2.265 2.265zM5.437 9.8c.175 8.377 4.363 13.41 11.707 13.41h.416v-4.792c2.698.269 4.739 2.242 5.558 4.793h3.812c-1.047-3.813-3.8-5.92-5.517-6.726 1.718-.993 4.134-3.41 4.712-6.685H22.66c-.752 2.658-2.98 5.074-5.101 5.302V9.8h-3.464v9.29c-2.148-.537-4.86-3.142-4.98-9.29H5.438z" fill="#0177FF"/></svg>