<svg width="33" height="32" fill="none" xmlns="http://www.w3.org/2000/svg"><path d="M7.3 8.59l-.708-.707.707.707zm8.674 0l-.707.707.707-.707zM7.3 17.265l.707-.707-.707.707zm4.625 4.625l.979.206.111-.53-.383-.383-.707.707zm0 .002l-.979-.206-.111.53.383.383.707-.707zm4.337 4.337l-.707.707.707.707.707-.707-.707-.707zm.001-.001l.707-.707-.707-.707-.707.707.707.707zm.001.001l-.707.707.708.707.706-.707-.707-.707zm4.338-4.337l.707.707.383-.383-.112-.53-.978.206zm0-.002l-.708-.707-.383.383.112.53.978-.206zm4.624-4.625l-.707-.707.707.707zm0-8.675l.707-.707-.707.707zm-8.675 0l-.707-.707.707.707zm-.288.288l-.707.708.707.707.707-.707-.707-.708zm-8.256.42a5.134 5.134 0 017.261 0l1.414-1.415a7.134 7.134 0 00-10.089 0l1.414 1.414zm0 7.26a5.134 5.134 0 010-7.26L6.592 7.882a7.134 7.134 0 000 10.09l1.414-1.415zm4.625 4.625l-4.625-4.625-1.414 1.414 4.625 4.625 1.414-1.414zm.271.915v-.002l-1.956-.412v.002l1.956.412zm4.066 3.424l-4.337-4.337-1.414 1.414 4.337 4.337 1.414-1.414zm-1.413-.001h-.001l1.414 1.415h.001l-1.414-1.415zm1.415 0h-.001l-1.414 1.414.001.002 1.414-1.415zm2.924-4.337l-4.338 4.338 1.414 1.414 4.338-4.337-1.415-1.415zm-.272.912v.001l1.957-.411v-.002l-1.957.412zm4.896-5.538l-4.625 4.625 1.414 1.414 4.625-4.625-1.414-1.414zm0-7.26a5.134 5.134 0 010 7.26l1.414 1.414a7.134 7.134 0 000-10.089l-1.414 1.414zm-7.26 0a5.134 5.134 0 017.26 0l1.414-1.415a7.134 7.134 0 00-10.089 0l1.414 1.414zm-.289.288l.288-.289-1.414-1.414-.288.288 1.414 1.415zm-1.702-.289l.288.289L16.97 8.17l-.288-.288-1.414 1.414z" fill="#2B2B2B"/><path d="M12.49 9.814a3.775 3.775 0 00-3.775 3.774" stroke="#2C75FF" stroke-width="2"/></svg>