<svg width="33" height="33" fill="none" xmlns="http://www.w3.org/2000/svg"><path d="M21.117 16.144v0c.354-2.475-1.768-4.596-4.242-4.243v0M26.067 15.435v0c.371-4.832-3.654-8.857-8.486-8.485v0" stroke="#2C75FF" stroke-width="2"/><path d="M9.45 6.598l-.886.886a5.84 5.84 0 00-1.557 5.458 17.518 17.518 0 0013.07 13.07c1.966.459 4.03-.13 5.457-1.558l.886-.886a1 1 0 000-1.414L24.3 20.033a3 3 0 00-4.243 0l-1.06 1.06-2.164-.54a6 6 0 01-4.366-4.365l-.541-2.165 1.06-1.061a3 3 0 000-4.243l-2.121-2.121a1 1 0 00-1.414 0z" stroke="#2B2B2B" stroke-width="2"/></svg>