<svg width="32" height="29" fill="none" xmlns="http://www.w3.org/2000/svg"><path fill-rule="evenodd" clip-rule="evenodd" d="M27.875 14.871A8.126 8.126 0 0016.385 3.38L16 3.764l-.383-.384A8.126 8.126 0 004.125 14.871L16 26.745h.001l11.874-11.874z" fill="#2C75FF"/><path d="M27.875 3.38l-.707.707.707-.707zm0 11.491l.707.707-.707-.707zM16.385 3.38l.706.707-.707-.707zM16 3.764l-.707.707.707.707.707-.707L16 3.764zm-.383-.384l.707-.707-.707.707zm-11.492 0l-.707-.707.707.707zm0 11.491l-.707.707.707-.707zM16 26.745l-.707.708.707.707.707-.708-.707-.707zm0 0l.707-.707L16 25.33l-.707.708.707.707zm.001 0l-.707.708.707.707.707-.707-.707-.707zM27.168 4.087a7.126 7.126 0 010 10.077l1.415 1.414a9.125 9.125 0 000-12.905l-1.415 1.414zm-10.077 0a7.126 7.126 0 0110.077 0l1.415-1.414a9.126 9.126 0 00-12.906 0l1.414 1.414zm-.384.384l.384-.384-1.414-1.414-.384.384 1.415 1.414zm-1.797-.384l.383.384 1.415-1.414-.384-.384-1.414 1.414zm-10.077 0a7.126 7.126 0 0110.077 0l1.414-1.414a9.126 9.126 0 00-12.906 0l1.415 1.414zm0 10.077a7.126 7.126 0 010-10.077L3.418 2.673a9.125 9.125 0 000 12.905l1.415-1.414zm11.874 11.874L4.833 14.164l-1.415 1.414 11.875 11.875 1.414-1.415zm-1.414 0l1.414 1.414h.001l-1.415-1.414zm1.415 0l-1.415 1.414h.001l1.414-1.414zm10.46-11.874L15.294 26.038l1.414 1.415 11.875-11.875-1.415-1.414z" fill="#2B2B2B"/><path d="M11 5a5 5 0 00-5 5" stroke="#fff" stroke-width="2"/></svg>