<svg width="71" height="28" fill="none" xmlns="http://www.w3.org/2000/svg"><path d="M21.79 23.834c0 .81-.193 1.478-.58 2.008-.386.523-.928.91-1.626 1.16-.692.249-1.503.367-2.42.367H12.57V15.007h4.346c.81 0 1.533.112 2.157.343.623.23 1.115.573 1.477 1.035.362.455.542 1.04.542 1.745 0 .611-.162 1.135-.492 1.565-.33.43-.78.76-1.34.997.691.2 1.321.58 1.82 1.104.468.511.71 1.19.71 2.038zm-5.105-6.814h-1.571v2.93h1.57c.556 0 .992-.13 1.31-.398.318-.262.48-.63.48-1.085 0-.455-.162-.81-.48-1.066-.318-.256-.754-.387-1.31-.38zm-1.571 8.335h1.833c.636 0 1.166-.15 1.59-.442.423-.293.635-.76.635-1.397 0-.598-.212-1.04-.636-1.315-.424-.274-.953-.418-1.59-.418h-1.832v3.572zM31.314 27.37l-1.29-2.793h-4.24l-1.271 2.793h-2.88l5.704-11.92a.628.628 0 01.842-.293c.13.062.237.168.293.293l5.716 11.92h-2.874zm-3.41-8.335l-1.52 3.534h3.035l-1.515-3.534zM35.035 15.007h2.544v4.626h5.76v-4.626h2.544V27.37h-2.544v-5.424h-5.76v5.424h-2.544V15.007zM47.07 15.007h2.544v4.626h5.76v-4.626h2.544V27.37h-2.544v-5.424h-5.76v5.424H47.07V15.007zM68.127 27.37l-1.29-2.793h-4.24l-1.272 2.793h-2.88l5.705-11.92a.628.628 0 01.841-.293c.131.062.237.168.293.293l5.717 11.92h-2.874zm-3.41-8.335l-1.521 3.534h3.036l-1.515-3.534z" fill="#2B2B2B"/><path d="M8.435 2.39H2.58v10.068H0V.095h11.016v12.362H8.435V2.39zM27.78.095v7.469L35.699.108a.403.403 0 01.567.018.413.413 0 01.106.281v12.044h-2.406V4.99l-7.936 7.456a.403.403 0 01-.568-.019.413.413 0 01-.105-.28V.096h2.424z" fill="#2C75FF"/><path d="M2.425 15.007v7.469l7.917-7.456a.403.403 0 01.568.019.413.413 0 01.106.28v12.05H8.609v-7.468L.673 27.357a.403.403 0 01-.567-.018.413.413 0 01-.106-.281v-12.05h2.425z" fill="#2B2B2B"/><path d="M37.54 2.39V.094h9.2V2.39H43.4v10.069h-2.544V2.388h-3.317zM47.71.095h2.611v5.019L54.718.095h3.017l-5.125 5.792 5.368 6.57h-3.073L50.315 6.86v5.598h-2.612L47.71.095zM68.127 12.457l-1.29-2.793h-4.24l-1.272 2.793h-2.88L64.15.544A.628.628 0 0164.99.25c.131.062.237.168.293.293l5.717 11.92-2.874-.007zm-3.41-8.335l-1.521 3.535h3.036l-1.515-3.535zM18.628.538a.628.628 0 00-.842-.293.608.608 0 00-.293.293l-5.704 11.92h2.88l3.392-7.843 3.41 7.842h2.88L18.628.537z" fill="#2C75FF"/></svg>