<svg width="53" height="53" fill="none" xmlns="http://www.w3.org/2000/svg"><circle cx="26.16" cy="26.5" r="25.5" stroke="#CECECE"/><path d="M21.156 22.031l8.164 4.713-8.798 15.238-2.396-5.277-5.768.564 8.798-15.238z" fill="#fff" stroke="#CECECE" stroke-width="1.5"/><path d="M30.578 22.031l-8.163 4.713 8.798 15.238 2.395-5.277 5.768.564-8.798-15.238z" fill="#fff" stroke="#CECECE" stroke-width="1.5"/><path d="M25.87 10.107l3.376 2.772 4.36-.258 1.102 4.226 3.679 2.354-1.593 4.066 1.593 4.067-3.68 2.354-1.101 4.226-4.36-.258-3.375 2.771-3.375-2.771-4.36.258-1.102-4.227-3.679-2.353 1.593-4.067-1.593-4.066 3.68-2.354 1.1-4.226 4.36.258 3.376-2.772z" fill="#fff" stroke="#CECECE" stroke-width="2"/><circle cx="25.869" cy="23.267" r="7.619" transform="rotate(180 25.87 23.267)" fill="#fff" stroke="#CECECE" stroke-width="1.5"/><path d="M21.613 23.577a4.254 4.254 0 004.254 4.254" stroke="#CECECE" stroke-width="1.5"/></svg>