<svg xmlns="http://www.w3.org/2000/svg" xmlns:xlink="http://www.w3.org/1999/xlink"><symbol id="filter-close-button"><g fill="none"><path d="M15.848 14.85l-9.9-9.9M15.848 4.95l-9.9 9.9" stroke="#C4C4C4" stroke-width="2"/></g></symbol><symbol id="filter-open-button"><g fill="none"><path d="M14 7H0M7 0v14" stroke="#C4C4C4" stroke-width="2"/></g></symbol><symbol id="footer-telegram-icon"><g fill="none"><path class="solo-k" d="M21.163 9.037s1.448-.565 1.327.807c-.04.564-.402 2.54-.684 4.678l-.965 6.332s-.08.928-.805 1.089c-.723.161-1.81-.565-2.01-.726-.162-.121-3.017-1.936-4.023-2.823-.281-.242-.604-.726.04-1.29l4.224-4.034c.482-.484.965-1.613-1.046-.242l-5.632 3.831s-.643.404-1.85.041l-2.615-.807s-.965-.605.684-1.21c4.023-1.895 8.97-3.83 13.354-5.646h.001z"/><path d="M15.723 1.052c7.846 0 14.207 6.36 14.207 14.207 0 7.846-6.36 14.206-14.207 14.206-7.846 0-14.206-6.36-14.206-14.207 0-7.846 6.36-14.206 14.206-14.206z"/></g></symbol><symbol id="footer-whatsapp-icon"><path d="M25.21 4.285C22.48 1.508 18.707 0 14.853 0 6.663 0 .08 6.587.16 14.602c0 2.539.722 5 1.926 7.221L0 29.362l7.788-1.984c2.167 1.19 4.576 1.746 6.985 1.746 8.109 0 14.692-6.587 14.692-14.602 0-3.888-1.525-7.539-4.255-10.237zM14.853 26.664c-2.168 0-4.335-.556-6.182-1.667l-.482-.238-4.656 1.19 1.204-4.523-.321-.476C.883 15.316 2.569 7.856 8.35 4.365 14.13.873 21.597 2.54 25.13 8.253c3.532 5.714 1.846 13.094-3.934 16.586-1.847 1.19-4.095 1.825-6.343 1.825zm7.065-8.809l-.883-.396s-1.285-.556-2.087-.953c-.08 0-.161-.08-.241-.08-.241 0-.402.08-.562.16 0 0-.08.079-1.205 1.349a.442.442 0 01-.401.238h-.08c-.08 0-.241-.08-.322-.159l-.4-.159c-.884-.396-1.687-.873-2.33-1.507-.16-.16-.4-.318-.561-.476-.562-.556-1.124-1.19-1.526-1.905l-.08-.159c-.08-.08-.08-.159-.16-.317 0-.159 0-.318.08-.397 0 0 .321-.397.562-.635.16-.159.24-.397.401-.555.16-.238.241-.556.16-.794-.08-.397-1.043-2.54-1.284-3.015-.16-.239-.32-.318-.562-.397h-.883c-.16 0-.321.08-.482.08l-.08.078c-.16.08-.321.239-.482.318-.16.159-.24.317-.401.476-.562.714-.883 1.587-.883 2.46 0 .635.16 1.27.401 1.825l.08.238a13.226 13.226 0 002.971 4.048l.321.317c.241.238.482.397.643.635 1.686 1.428 3.612 2.46 5.78 3.015.241.08.562.08.803.16h.803c.401 0 .883-.16 1.204-.318.241-.159.402-.159.562-.318l.16-.159c.161-.158.322-.238.482-.396.161-.159.322-.318.402-.476.16-.318.24-.715.321-1.111v-.556s-.08-.08-.24-.159z"/></symbol><symbol id="product-favourite-icon"><path d="M4.126 3.38l-.708-.708.708.707zm11.49 0l.708-.708-.707.707zM4.127 14.87l-.708.708.708-.707zM16 26.746l-.707.707.707.708.708-.709-.708-.706zm0 0l.707-.708L16 25.33l-.707.708.707.706zm.001 0l-.707.707.707.708.707-.707-.707-.708zm11.874-11.874l.708.707-.707-.707zm0-11.491l-.707.707.707-.707zm-11.49 0l.706.707-.707-.707zM16 3.763l-.707.707.707.708.707-.708L16 3.763zm-11.168.324a7.126 7.126 0 0110.077 0l1.414-1.415a9.126 9.126 0 00-12.906 0l1.415 1.415zm0 10.077a7.126 7.126 0 010-10.077L3.418 2.672a9.126 9.126 0 000 12.906l1.415-1.414zm11.874 11.874L4.833 14.164l-1.415 1.414 11.875 11.874 1.414-1.414zm-1.415 0l1.416 1.413-1.415-1.413zm1.416 0l-1.415 1.414h.001l1.414-1.414zm10.46-11.874L15.294 26.038l1.414 1.415 11.875-11.875-1.415-1.414zm0-10.077a7.126 7.126 0 010 10.077l1.415 1.414a9.125 9.125 0 000-12.905l-1.415 1.414zm-10.077 0a7.125 7.125 0 0110.077 0l1.415-1.414a9.125 9.125 0 00-12.906 0l1.414 1.414zm-.383.383l.383-.383-1.414-1.414-.383.383 1.414 1.414zm-1.798-.383l.384.383 1.414-1.414-.384-.384-1.414 1.415z"/><path d="M11 5a5 5 0 00-5 5" stroke="#2C75FF" stroke-width="2"/></symbol></svg>