<svg width="20" height="22" viewBox="0 0 20 22" fill="none" xmlns="http://www.w3.org/2000/svg">
<path d="M20 11L8 11" stroke="#2B2B2B" stroke-width="2"/>
<path d="M-2.68866e-07 3.72754L10 3.72754" stroke="#2B2B2B" stroke-width="2"/>
<path d="M-1.69654e-07 18.2725L12 18.2725" stroke="#2B2B2B" stroke-width="2"/>
<path d="M3 11L0 11" stroke="#2B2B2B" stroke-width="2"/>
<path d="M15.4545 3.72754L20 3.72754" stroke="#2B2B2B" stroke-width="2"/>
<path d="M17 18.2725L20 18.2725" stroke="#2B2B2B" stroke-width="2"/>
<path d="M5.72585 13.727C4.21962 13.727 2.99858 12.506 2.99858 10.9997C2.99858 9.4935 4.21962 8.27246 5.72585 8.27246C7.23208 8.27246 8.45313 9.4935 8.45313 10.9997C8.45313 12.506 7.23208 13.727 5.72585 13.727Z" stroke="#2C75FF" stroke-width="2"/>
<path d="M12.7273 1.00004C14.2335 1.00004 15.4545 2.22109 15.4545 3.72732C15.4545 5.23355 14.2335 6.45459 12.7273 6.45459C11.221 6.45459 10 5.23355 10 3.72732C10 2.22109 11.221 1.00004 12.7273 1.00004Z" stroke="#2B2B2B" stroke-width="2"/>
<path d="M14.7273 15.5455C16.2335 15.5455 17.4545 16.7665 17.4545 18.2727C17.4545 19.779 16.2335 21 14.7273 21C13.221 21 12 19.779 12 18.2727C12 16.7665 13.221 15.5455 14.7273 15.5455Z" stroke="#2B2B2B" stroke-width="2"/>
</svg>
