<svg width="71" height="20" viewBox="0 0 71 20" fill="none" xmlns="http://www.w3.org/2000/svg">
<path fill-rule="evenodd" clip-rule="evenodd" d="M19.6451 0.0390629V0.0477505C19.6364 0.0477505 16.8994 0.0390628 16.1695 2.65404C15.5004 5.05183 13.6149 11.6718 13.5628 11.8543H13.0415C13.0415 11.8543 11.1125 5.08658 10.4348 2.64536C9.7049 0.0303752 6.95918 0.0390629 6.95918 0.0390629H0.703125V19.9338H6.95918V8.11857H7.21985H7.48052L11.1299 19.9338H15.4744L19.1237 8.12726H19.6451V19.9338H25.9011V0.0390629H19.6451Z" fill="#0F754E"/>
<path fill-rule="evenodd" clip-rule="evenodd" d="M42.4961 0.0385742C42.4961 0.0385742 40.6627 0.203639 39.8025 2.12361L35.3711 11.8538H34.8498V0.0385742H28.5938V19.9333H34.5023C34.5023 19.9333 36.4225 19.7595 37.2827 17.8482L41.6272 8.11808H42.1485V19.9333H48.4046V0.0385742H42.4961Z" fill="#0F754E"/>
<path fill-rule="evenodd" clip-rule="evenodd" d="M51.1875 9.07373V19.9333H57.4436V13.5913H64.221C67.1752 13.5913 69.6776 11.7061 70.6073 9.07373H51.1875Z" fill="#0F754E"/>
<path fill-rule="evenodd" clip-rule="evenodd" d="M64.2235 0.0385742H50.3125C51.0076 3.82639 53.8489 6.86706 57.5243 7.85745C58.3585 8.08333 59.2361 8.20496 60.1397 8.20496H70.8619C70.9575 7.7532 71.0009 7.29276 71.0009 6.81494C71.0009 3.07056 67.9685 0.0385742 64.2235 0.0385742Z" fill="url(#paint0_linear_1_7482)"/>
<defs>
<linearGradient id="paint0_linear_1_7482" x1="50.5" y1="5" x2="71" y2="5" gradientUnits="userSpaceOnUse">
<stop stop-color="#03ACFE"/>
<stop offset="1" stop-color="#1E5ED8"/>
</linearGradient>
</defs>
</svg>
