<svg width="65" height="22" viewBox="0 0 65 22" fill="none" xmlns="http://www.w3.org/2000/svg">
<path d="M26.8893 0.89209L22.5547 21.1648H27.7963L32.1309 0.89209H26.8893Z" fill="#1A1F71"/>
<path d="M19.1257 0.892627L13.6707 14.6834L11.4701 2.95991C11.3806 2.38154 11.0862 1.8546 10.6406 1.47513C10.195 1.09566 9.62795 0.888935 9.0427 0.892627H0.120036L0 1.47947C1.78948 1.83019 3.52798 2.40371 5.17488 3.18665C5.51797 3.35259 5.81241 3.6043 6.02971 3.91739C6.24701 4.23049 6.37981 4.59438 6.41525 4.97385L10.6032 21.1653H16.1381L24.634 0.892627H19.1257Z" fill="#1A1F71"/>
<path d="M60.6558 0.892128H56.1745C55.6963 0.889428 55.2284 1.03037 54.8312 1.29671C54.4341 1.56305 54.1261 1.9425 53.9471 2.38591L46.0781 21.1648H51.5864L52.6801 18.1373H59.3488L60.0156 21.1648H64.8704L60.6558 0.892128ZM54.1872 13.976L56.948 6.36043L58.5352 13.976H54.1872Z" fill="#1A1F71"/>
<path d="M39.014 6.50799C39.014 5.78777 39.7209 5.01421 41.2414 4.81415C43.0166 4.64336 44.8049 4.95678 46.4163 5.72108L47.3232 1.42647C45.7543 0.833807 44.0921 0.526654 42.4151 0.519531C37.2268 0.519531 33.5858 3.28036 33.5591 7.18819C33.5591 10.1091 36.2265 11.7362 38.1471 12.7098C40.0677 13.6835 40.8146 14.337 40.8146 15.2306C40.8146 16.5643 39.1874 17.1912 37.6803 17.2178C35.8175 17.2343 33.9813 16.7753 32.3454 15.8841L31.3984 20.3254C33.2559 21.0493 35.2334 21.4158 37.2268 21.4058C42.7352 21.4058 46.3362 18.7383 46.3496 14.4704C46.3762 9.18879 38.9607 8.89536 39.014 6.50799Z" fill="#1A1F71"/>
</svg>
