<svg width="40" height="25" viewBox="0 0 40 25" fill="none" xmlns="http://www.w3.org/2000/svg">
<path d="M39.1265 19.9726V19.5754H39.2881V19.4932H38.8789V19.5754H39.0405V19.9726H39.1265Z" fill="#2B2B2B"/>
<path d="M39.9193 19.9716V19.4922H39.7955L39.651 19.8209L39.5066 19.4922H39.3828V19.9716H39.4688V19.6086L39.6063 19.9202H39.6957L39.8333 19.6086V19.9716H39.9193Z" fill="#2B2B2B"/>
<circle cx="27.5" cy="12.5" r="12.5" fill="#F79E1B"/>
<circle cx="12.5" cy="12.5" r="12.5" fill="#EB001B"/>
<path fill-rule="evenodd" clip-rule="evenodd" d="M20 22.5009C23.0361 20.2204 25 16.5895 25 12.5C25 8.41046 23.0361 4.7796 20 2.49908C16.9639 4.7796 15 8.41046 15 12.5C15 16.5895 16.9639 20.2204 20 22.5009Z" fill="#FF5F00"/>
</svg>
