<svg width="32" height="29" viewBox="0 0 32 29" fill="none" xmlns="http://www.w3.org/2000/svg">
<path fill-rule="evenodd" clip-rule="evenodd" d="M27.8754 14.8712C31.0486 11.698 31.0486 6.55314 27.8754 3.37992C24.7022 0.206694 19.5574 0.206693 16.3841 3.37992L16.0004 3.76368L15.6167 3.37997C12.4434 0.206746 7.29863 0.206749 4.1254 3.37997C0.952176 6.5532 0.952178 11.698 4.1254 14.8712L15.9997 26.7455L16.0004 26.7448L16.0011 26.7455L27.8754 14.8712Z" fill="#2C75FF"/>
<path d="M27.8754 3.37992L27.1683 4.08703V4.08703L27.8754 3.37992ZM27.8754 14.8712L28.5825 15.5783L27.8754 14.8712ZM16.3841 3.37992L17.0912 4.08703L17.0912 4.08703L16.3841 3.37992ZM16.0004 3.76368L15.2933 4.47079L16.0004 5.17789L16.7075 4.47079L16.0004 3.76368ZM15.6167 3.37997L16.3238 2.67286V2.67286L15.6167 3.37997ZM4.1254 3.37997L3.41829 2.67287H3.41829L4.1254 3.37997ZM4.1254 14.8712L3.4183 15.5783H3.4183L4.1254 14.8712ZM15.9997 26.7455L15.2926 27.4526L16.0002 28.1602L16.7073 27.4522L15.9997 26.7455ZM16.0004 26.7448L16.7075 26.0377L16 25.3301L15.2929 26.0382L16.0004 26.7448ZM16.0011 26.7455L15.294 27.4526L16.0011 28.1597L16.7082 27.4526L16.0011 26.7455ZM27.1683 4.08703C29.951 6.86973 29.951 11.3814 27.1683 14.1641L28.5825 15.5783C32.1463 12.0145 32.1463 6.23656 28.5825 2.67281L27.1683 4.08703ZM17.0912 4.08703C19.8739 1.30432 24.3856 1.30433 27.1683 4.08703L28.5825 2.67281C25.0188 -0.890937 19.2408 -0.890938 15.677 2.67281L17.0912 4.08703ZM16.7075 4.47079L17.0912 4.08703L15.677 2.67281L15.2933 3.05657L16.7075 4.47079ZM14.9096 4.08708L15.2933 4.47079L16.7075 3.05657L16.3238 2.67286L14.9096 4.08708ZM4.83251 4.08708C7.61521 1.30438 12.1269 1.30438 14.9096 4.08708L16.3238 2.67286C12.76 -0.890886 6.98204 -0.890882 3.41829 2.67287L4.83251 4.08708ZM4.83251 14.1641C2.04981 11.3814 2.04981 6.86978 4.83251 4.08708L3.41829 2.67287C-0.145455 6.23662 -0.145453 12.0146 3.4183 15.5783L4.83251 14.1641ZM16.7068 26.0384L4.83251 14.1641L3.4183 15.5783L15.2926 27.4526L16.7068 26.0384ZM15.2929 26.0382L15.2921 26.0389L16.7073 27.4522L16.708 27.4515L15.2929 26.0382ZM16.7082 26.0384L16.7075 26.0377L15.2933 27.4519L15.294 27.4526L16.7082 26.0384ZM27.1683 14.1641L15.294 26.0384L16.7082 27.4526L28.5825 15.5783L27.1683 14.1641Z" fill="#2B2B2B"/>
<path d="M11 5C8.23858 5 6 7.23858 6 10" stroke="white" stroke-width="2"/>
</svg>
