<svg width="23" height="23" viewBox="0 0 23 23" fill="none" xmlns="http://www.w3.org/2000/svg">
<path d="M20.3827 2.12143C20.3827 2.12143 21.3419 5.40481 19.9085 6.83828C18.475 8.27175 16.3632 8.48406 15.1916 7.31248C14.0201 6.14091 14.2324 4.02911 15.6658 2.59564C17.0993 1.16217 20.3827 2.12143 20.3827 2.12143Z" stroke="#2B2B2B" stroke-width="2"/>
<path d="M10.5934 9.05487C7.45153 12.1968 5.11852 15.4639 3.70231 17.6747C3.17686 18.4949 3.98183 19.2999 4.80208 18.7744C7.01288 17.3582 10.28 15.0252 13.4219 11.8833" stroke="#2B2B2B" stroke-width="2"/>
<path d="M13.9876 6.79225L14.8361 7.64078L15.6846 8.4893L13.4219 11.8834L10.5934 9.05499L13.9876 6.79225Z" stroke="#2B2B2B" stroke-width="2" stroke-linejoin="round"/>
</svg>
