<svg width="31" height="31" viewBox="0 0 31 31" fill="none" xmlns="http://www.w3.org/2000/svg">
<path class="solo-k" d="M21.1631 9.03704C21.1631 9.03704 22.611 8.47241 22.4899 9.84355C22.45 10.4082 22.0881 12.3846 21.8063 14.522L20.8411 20.854C20.8411 20.854 20.7606 21.7816 20.0364 21.943C19.3127 22.104 18.2266 21.3784 18.0254 21.217C17.8644 21.0959 15.0088 19.2809 14.0033 18.3939C13.7215 18.1516 13.3995 17.6679 14.0435 17.1032L18.2665 13.0699C18.7492 12.5862 19.2318 11.4569 17.2207 12.8281L11.5894 16.6594C11.5894 16.6594 10.9457 17.063 9.73931 16.7L7.1245 15.8931C7.1245 15.8931 6.15922 15.2882 7.80839 14.6833C11.8309 12.7878 16.7784 10.8521 21.1623 9.03704H21.1631Z"/>
<path d="M15.7233 1.05231C23.5694 1.05231 29.9295 7.41239 29.9295 15.2585C29.9295 23.1046 23.5694 29.4646 15.7233 29.4646C7.87723 29.4646 1.51715 23.1046 1.51715 15.2585C1.51715 7.41239 7.87723 1.05231 15.7233 1.05231Z"/>
</svg>
