<svg width="32" height="29" viewBox="0 0 32 29" xmlns="http://www.w3.org/2000/svg">
<path d="M4.12552 3.37943L3.41842 2.67232L3.41842 2.67233L4.12552 3.37943ZM15.6168 3.37943L16.3239 2.67232V2.67232L15.6168 3.37943ZM4.12553 14.8707L3.41842 15.5778H3.41842L4.12553 14.8707ZM15.9998 26.745L15.2927 27.4521L16.0005 28.1599L16.7076 27.4514L15.9998 26.745ZM16.0003 26.7445L16.7074 26.0374L15.9996 25.3296L15.2925 26.0381L16.0003 26.7445ZM16.0012 26.7454L15.2941 27.4525L16.0012 28.1596L16.7083 27.4525L16.0012 26.7454ZM27.8755 14.8711L28.5826 15.5782L27.8755 14.8711ZM27.8755 3.37987L27.1684 4.08697L27.8755 3.37987ZM16.3843 3.37987L17.0914 4.08697L17.0914 4.08697L16.3843 3.37987ZM16.0007 3.76338L15.2936 4.47049L16.0007 5.1776L16.7078 4.47049L16.0007 3.76338ZM4.83263 4.08654C7.61533 1.30384 12.127 1.30384 14.9097 4.08654L16.3239 2.67232C12.7601 -0.891427 6.98217 -0.891423 3.41842 2.67232L4.83263 4.08654ZM4.83263 14.1636C2.04993 11.3809 2.04993 6.86924 4.83263 4.08654L3.41842 2.67233C-0.145333 6.23607 -0.14533 12.0141 3.41842 15.5778L4.83263 14.1636ZM16.7069 26.0379L4.83263 14.1636L3.41842 15.5778L15.2927 27.4521L16.7069 26.0379ZM15.2925 26.0381L15.292 26.0386L16.7076 27.4514L16.7081 27.4509L15.2925 26.0381ZM16.7083 26.0383L16.7074 26.0374L15.2932 27.4516L15.2941 27.4525L16.7083 26.0383ZM27.1684 14.164L15.2941 26.0383L16.7083 27.4525L28.5826 15.5782L27.1684 14.164ZM27.1684 4.08697C29.9511 6.86967 29.9511 11.3813 27.1684 14.164L28.5826 15.5782C32.1464 12.0145 32.1464 6.23651 28.5826 2.67276L27.1684 4.08697ZM17.0914 4.08697C19.8741 1.30427 24.3857 1.30427 27.1684 4.08697L28.5826 2.67276C25.0189 -0.89099 19.2409 -0.890991 15.6772 2.67276L17.0914 4.08697ZM16.7078 4.47049L17.0914 4.08697L15.6772 2.67276L15.2936 3.05628L16.7078 4.47049ZM14.9097 4.08654L15.2936 4.47049L16.7078 3.05628L16.3239 2.67232L14.9097 4.08654Z"/>
<path d="M11 5C8.23858 5 6 7.23858 6 10" stroke="#2C75FF" stroke-width="2"/>
</svg>
